<svg xmlns="http://www.w3.org/2000/svg" viewBox="0 0 723.12 121.63">
<g id="レイヤー_2" data-name="レイヤー 2">
<g id="レイヤー_1-2" data-name="レイヤー 1">
<path d="M38.38,95.38l-1.76,1-6,.12-1.5-.25-2,.37H25l-1.5-.12-1.88.12L19.5,96.5l-2.38-.12-1.62.24-2.25.13-3.87-.13H7.75L4.62,96,2,94,.88,91.5.75,88.75V86.38l.75-.5.88.24,1.24,1.26.5.24-.5-1L2.75,85l-1-1.75-.63-1.37L.75,80.25.62,78.88l.5-2,.76-.76-.13-.37.37.75.88.12.25-.24L3,75.5,2.25,75l.25-.25.38-.5.12-1-.12-.63-1-.37L1,72l-.12-.75L.62,69.38l.26-1.5.37-1.26L1,65.88l.5.12-.25-.12L.5,65.25l-.38-1L.5,62,.38,60,.25,57.75l.25-3-.12-2L.5,50.88.38,49,.12,47l.26-2.38v-2L.25,41l.37-2L.25,36.88.38,35,.25,32.75l.13-2L.25,28l.37-2,.63-1.5.25-.38-.38-1.5L.5,20.5l.25-3.25-.37-3-.13-2V10.5L0,7.75l.12-2.5L.88,3,2.5,1.38,4.38.25,6.62,0,8.75.5l2.5-.12,2.37.37.76.25.87.62L15.5,2l.38-.12L16.75.75h1.63L20.25.5l2-.12,2.5-.13L27,.38,28.75.12l4,.13,2.63.37,2.74.88L39.88,3l-.13,2,.5,2.25.13,2.63v4l.12,1.87L40,18.12l.25,1.76.13,3,.12,2.24L40.38,28l-.13,3v2l.13,3.38-.26,3,.26,1.87.24,2-.24,1.87v1.76l.24,2.24L40.5,51.5l-.12,1.75L40,55.38l.12,1.74L40.5,59l.25,2.12L40.5,64.5l.12,2.88-.37,2.12.13,1.75L40,73.38l.38,2.37.12,1.5v2.13l.12,2.24-.37,1.76.25,2.5.12,1.87L40.5,90.5l-.62,2.62Z"/><path d="M86,93.75l-.63,1.13-1.87,1-2.13.74-3.12-.5L74.75,96l-4.5-1-1.75-.38-1.38-.12-1.5-.75-1.75-.37L63,92.75l-1.63-.87-1.75-.63L57.87,90l-1.37-.88-.75-.87-1.5-1.37-1-.76-.88-1-1.12-1.5L49.37,82l-1.5-2.75L46.5,76l-.88-2.75-.37-3-.5-3V65.12l-.5-1.24V62l.12-1.25L44,59.12l.37-1.37L44.62,56,45,53.88,45.62,52V49.88l.88-2.5.87-1.76.88-1.37.62-1.37.5-1.26,1.38-1.24.62-1.63,1.25-2,3-2.5,1.63-1,3-2.13,2.5-1.74,1.75-.63L66.37,28l2.5-.75,1.25-.13.75.38v-.12h1.88l2.12-.5,2-1.38L79,25.38l2.37-.5,1.63.5,1.37.87.88,1.13L85.87,30l.25,2.25.13,1.63-.13,2.37-.37,2L86,40.5l.37,2.75-.12,2.63-.38,3.5.38,3.24L86,54.38l.37,2.12-.12,2.12v2L86,62.5l.62,2.12-.5,2.26-.25,1.62.5,2.25v1.87l.25,2.13L86,76.88l.5,2v2.5L85.62,84v3.62L86.25,91Zm20.87-65.87.13-.63.62-.87,1.25-.76,1.75-.12,1.5-.25,1.5.5.25.75.88-.25,1.87-.87,2,.12h1l1,.5,1.13-.5,2.12-.5,2-.12,2,.74,1.5,1,.38,1.38v3.25l-.13.63.5,1.5.38,2.12-.5,2.75-.13,2.37-.62,1.88.37.75.25,1.87.25,3.26-.37,2.87-.5,1.87.12,2v3.63l.25,3.63v2.87l.75,2.25-.5,2,.25,1.88.13,1.87L130,75.12l.37,2.5L130,80l.12,1.88.25,2-.12,2,.25,2L130,90l-.13,2-.75,1.5-1.25,1.25-1.62,1.37h-1.63l-2,.5L120,96.38h-2.5l-1.88.24-2,.13-1.87-.5h-5.88l-2,.37-2-.12-1.62.12-2.13-.12-2.5-.12-1.5-.13-1.75-.63L91,94.5l-.38-1.62L90,90.5l.25-3.5-.5-2.88-.13-2,.13-1.62.12-2.25.38-2.13-.5-1.62.37-2,.38-2.25L90.12,68l.25-2.25.25-.87-.75-2.5.5-1.38V59.12l-.75-2.5L90,53.75l-.25-1.87.37-1.63-.5-1.63.5-2.5L90,44.5l.12-2.12-.12-2v-2l-.13-2,.38-2.13-.13-2.37V30l.63-1.88,1-1.5,1-.87,3-.25L98.5,25l2.62.12,2.38.38,1.75.62.25,1.26.37,1,.5.12.38-.12Z"/><path d="M200.12,68.12l.38,1.38.62,1.88-.25,1.24.63,1.63L201.37,76l-.62,2.12-.25,1.5-.5,2-.38,1.26-.5,1.12-1,1.75-1.5,1.87L195.87,89l-1,1.25-1.5.63-1.12,1.24-2,1-2.25.63-2.13.5-2.25,1-2.87.5-2.75.37-2.38.26h-2.5l-1.62-.26-1.75-.87-2.38-1.63-2.12-1.74-1.13-1.5-1.62-1.76-1.38-1.24-1.87-2.5-2.38-2.38L155.62,81V79.88l.63-.5.37-.13-1,.13-.87.37-.63-.25-.75-.25-1.12-1.13-1.63-1.87-1.25-1.63-2.5-2.24-2.75-2.76-1.62-2.37-1.38-1.63-1.62-1.87-1.25-1.63-.63-2-1-2-.37-1L136,56l-.88-1.62-.87-1.13-.5-1.13-.38-1.62V48.75L133.25,47l.5-2,.12-2.5.88-2.25.25-1.13.5-1.5,1.25-1.87,1.25-1.5,2-2,1.12-1.37,1.63-1,1.5-1,2.37-1.26,1.63-.74,1.87-.38,2.63-.5h1.5l1.62-.5,2.5-.25,2.75.13,2.88.74,1.25.38,1,1L167,29l.12.88,1.5.5,1.75.62,2,2.12,2.13,2,1.12,1.63.88,1.63.5,1.12v1l-.38.88.88-.13v-.13l.25-.62.12-.75,1.63.5,1.12,1.37,1.5,2.13,1,1.5-.25,1.25.88-.12,1.62.62,1.75,1.25L189.37,51l1.38,1,1.62,2.25,1.5,1.37.88,1.5,1.25,1.5.75,1.76.37,1.62,1.13,1.5,1,1.75.62,1.25Zm-42.37,21,1.5,1.26,1.62,1.87.25,1.75.38,1.25-1.13,1-1-.13-.62-.37-.13-.25-.62.38.25.5h-.5l-.88-.13-.75-1-1.37-.13-1.13.88-1.75.75L150,96.62l-.88-.12L148,95.88l-1.13.12-1.75.62-2,.13-2.75-.13-1.75-.12-1.5-1.25-1.75-1-.25-1.63L135,90.5l.12-2.5-.25-2.25V83.12l.38-2.24L135,79.12l-.5-2.62.5-1.88-.13-2.37.88-2,1.12-.87h1.63l1.25,1.12,2.12,1.38,1,1.62,1.88,1.62,2.12,2.13,1.5,1.37.38,1.38.25.75.25.5.25-.37.25.12.87.25.75,1.25.5,1.25,1.13.75,1.12,1.12L155.75,87Zm21.12-54.24L177,33.25l-1.63-2-1.5-2-.5-1.75v-.88l.75-1,1.88-.5,2.25-.12,2.87-.25,2,.25,1.63.12h4.87l2.38.26,3.37.24,1.88.76L198.37,28l.13,2.38.37,2.24-.25,1.88v2.38l.25,2.12.13,2.12-.25,2,.12,2.5-.5,3.26-.62,1.62-1,1.12h-1.5L194,50.38l-1.63-1.26-1.62-2-1.25-1.5L187.75,44l-1.38-1.75-1.12-.75-.38-.88L183.62,39l-.75-.75-.75-.63-.5-.24L180.12,36Z"/><path d="M244.37,13l.13,2-.25,2.12-.38,1.63.38,2L244,22.88,243.75,26l.62,3L244,30.75l.37,2L244,35.88l.5,2.74-.38,2.26-.25,1.74.38,2.13.12,1.75-.5,2.88.13,3,.25,1.74L244,56.5l.12,2.25.25,1.63L244,62.25l.12,2.25L244,66.25l.12,2.25v2.12l-.12,1.5.37,2.13-.5,2.25v1.62l.5,2.26-.12,1.5-.13,2.37v1.87l.13,1.76-.13,3-.5,2.62-.75,2-2,1.5-1.62.38h-2l-2.75.24-1.88-.37h-.5l.5-.63-.12-.74-.38.12v.5l-.87,1.12-1.5.26-2.38-.26-1.12-.24-1.88-.26-2-.62-2-.5-1.5-.75-1.37-.75L216,93.38l-.75-.38-.5-.38-.88-.5-1.25-1.37-1.37-1-.75-1.13-.38-.5-1-.74L208.25,86l-.5-1.38L207.37,83l-.62-1.38-1-2L205.37,77l-.5-2.12.13-2.13-.5-2-.13-2.5L204,65.88l.62-1.76-.12-2.37-.63-2.5.25-2.75v-3l.38-2-.5-2.38.37-2.24.13-1.63L205,44l-.25-.38.37-.12v-.88l.38-.74.12-1.63-1.25-2.37V35.12l.63-2.5.62-1.87.75-2.75,1.5-2.5,1.63-2.12.87-1.63L212.5,20l.62-1,.88-.38.75-1.37,1.87-2,1.38-2L219.37,12l.88-.88.37-.87L222,8.75l.87-.63.25-.74,1.25-.88,1.25-.62,1.5-.26,2.63-.74,2.87.37,2.5-.37,3.38.5,2.75.12,1.5.62.62,1,.75,1.63.13,2Zm7.25,36.5-2.75.25L247.5,48.5l-.25-2.5-.13-3.12.25-1.76L247.12,39l-.25-1.88.13-1.74.25-2.13V31.5l.37-2.62.63-2.63.75-.87,1.87-.38,2.13.75.75,2.75.5,2.62-.38,2.13-.12,1.63.37,2-.25,1.62.25,2.38-.62,1.87-.25,2.87L253,48.38Z"/><path d="M298.75,93.75l-.63,1.13-1.87,1-2.13.74-3.12-.5L287.5,96,283,95l-1.75-.38-1.38-.12-1.5-.75-1.75-.37-.87-.63-1.63-.87-1.75-.63L270.62,90l-1.37-.88-.75-.87L267,86.88l-1-.76-.88-1L264,83.62,262.12,82l-1.5-2.75L259.25,76l-.88-2.75-.37-3-.5-3V65.12l-.5-1.24V62l.12-1.25-.37-1.63.37-1.37.25-1.75.38-2.12.62-1.88V49.88l.88-2.5.87-1.76.88-1.37.62-1.37.5-1.26,1.38-1.24.62-1.63,1.25-2,3-2.5,1.63-1,3-2.13,2.5-1.74,1.75-.63,1.87-.75,2.5-.75,1.25-.13.75.38v-.12h1.88l2.12-.5,2-1.38,2.13-.12,2.37-.5,1.63.5,1.37.87.88,1.13.62,2.62.25,2.25.13,1.63-.13,2.37-.37,2,.25,2.25.37,2.75L299,45.88l-.38,3.5.38,3.24-.25,1.76.37,2.12L299,58.62v2l-.25,1.88.62,2.12-.5,2.26-.25,1.62.5,2.25v1.87l.25,2.13-.62,2.13.5,2v2.5L298.37,84v3.62L299,91Zm20.87-65.87.13-.63.62-.87,1.25-.76,1.75-.12,1.5-.25,1.5.5.25.75.88-.25,1.87-.87,2,.12h1l1,.5,1.13-.5,2.12-.5,2-.12,2,.74,1.5,1L342.5,28v3.25l-.13.63.5,1.5.38,2.12-.5,2.75-.13,2.37L342,42.5l.37.75.25,1.87.25,3.26-.37,2.87-.5,1.87.12,2v3.63l.25,3.63v2.87l.75,2.25-.5,2,.25,1.88.13,1.87-.25,1.87.37,2.5L342.75,80l.12,1.88.25,2-.12,2,.25,2-.5,2.12-.13,2-.75,1.5-1.25,1.25L339,96.12h-1.63l-2,.5-2.62-.24h-2.5l-1.88.24-2,.13-1.87-.5h-5.88l-2,.37-2-.12-1.62.12-2.13-.12-2.5-.12-1.5-.13-1.75-.63-1.37-1.12-.38-1.62-.62-2.38L303,87l-.5-2.88-.13-2,.13-1.62.12-2.25.38-2.13-.5-1.62.37-2,.38-2.25L302.87,68l.25-2.25.25-.87-.75-2.5.5-1.38V59.12l-.75-2.5.38-2.87-.25-1.87.37-1.63-.5-1.63.5-2.5-.12-1.62.12-2.12-.12-2v-2l-.13-2,.38-2.13-.13-2.37V30l.63-1.88,1-1.5,1-.87,3-.25,2.75-.5,2.62.12,2.38.38,1.75.62.25,1.26.37,1,.5.12.38-.12Z"/><path d="M370.87,91.38l-2.37-.76-2.75-1.12-2.63-.75-1.5-.75-1.37-1-1.38-.88-1.12-.87-1-1L355,83.12l-1.5-1.62L352,79.62l-.88-2-.87-1.24-.63-1.88-1.25-1.38-.12-1.74-1-2.63-.13-2.13L347,64.88l-.63-1.26.38-2.74v-2l.5-1.76.25-1-.13.26-.12.37-.38-1.25.5-1.5.25-2.25.5-2.13.75-2.74L350.5,44l1-2.12,1.62-1.63.63-1.25.75-.5.62-.25h-.5l-.37-.13.37-.62.75-.75L358.62,34l1.13-.75.87-.75.75.12.25-.12.25,1-.62.38.25.37.87.63,1.25.62,1,.38,1.13-.26-.25-.24-1.5-.5-1.88-.5-.25-.38-.12-.12.37-.88.88-.5.25-.75.25-.37.25-1,1.12-.76,1.25-.62,2.13-.88,1.62-1,2.75-.5,2.63-.74,4.25-.26h3.75l3.25.63L387.62,28l.75,1-1.12-.12H386l.62.12.5.75.88.87.37,1.63-.5,3V36l.63.25-.13,1.37.13,2.63.12,1.75.13,2.75-.63,2.5L387.75,49h-.25l.25.38v1.24l.37,1.5.25,2,.13,2.13.37,2.25-.12,2,.12,1.62L388.62,64l-.12,2.38.37,2.87L388.62,72l-.25,1.88.38,2-.25,2,.12,2.12-.25,1.5.25,2,.13,2.25-.25,2.63-1.63,2.74-2,1-2,.63-2.25.13-2.87-.5-2.63-.63-2.5-.13Zm61,16.24-.12,1.26v.62l-.25.88.12.62-.5,2.25-.25,1.63-1.5.62-.37.38-.75-.5v-.5l-.5-.13L427,115l-.13.25.88.13.5.24-.25,1.13-1,1.37-1.25,1.26-1.5,1-1.63.37-3.62.75-4.63-.5-.87-.25-.25-.63-.13.26-.75.62-1.87.12-2.25.5h-4.5l-3.25-.37h-2.88l-2,.13h-3.87l-2.75.24-4.75-.12-2-.12-2.88.12-2,.12-1.75-.37-.25-.5-.5-.25-.5.62H371.5l-3.13.5-1.62-.5-2.5-.74-2.13-2-.62-2,.37-2.76.5-1.5v-.5l.75-.74h.13l.12-.5-.87-1-.88-2.13.13-3.75.37-2.88.38-2.24,1.25-1.26,2.62-.5,2.38-.37,4.25.37,2.12-.24,1.5-.26,2.38.38h2.12L384,97l1.37.25h.75l.13.25.5-.5,1.37-.38,3.25-.37,1.88.5,2-.13,1.87-.12,2.63-.12,2.12.12,1.88-.25,1.75.25,2.25-.12,1.75-.26,2.37.63,2.25-.13,1.75-.5,2.88.26,2.25.37,1.37.5.5,1.13.75,1-.37.37.37.25.13.12L423.62,99l.25-.62-.37-.26-.25-.74,1-.63,3-.25,2.25.75,1.37.63,1,.74-.12.63h-.25l.87.87v5.13Zm.75-30,.13,2.76-.13,2.5-.12,2.74-.38,3.13-.37,2.13-1.63,1-2.37.87H422l-1.88-.13-1.87.26L416.5,93l-4.5-.25-2.13-.25-2.75.38h-2.25L403,92.5l-2.13.12L398,92.38,395.62,92l-1.75-.38-.75-1.37-.62-1.5.12-2.13L392.25,84l.5-2.12L392.37,80l.13-1.88.12-2.12L392,74l.12-3.12.5-2.88.13-2-.63-2.12.25-1.88.13-2-.25-2.12.37-2.63-.12-2.87.12-2.13-.12-2.5.12-1.37,1.38-.63.37.25.5.62.13-.5-1.25-.74-.88-2.13-.5-3.5-.12-3.25V32.62l.25-2.24V28.12l1.62-1.74,1.75-1,1.63-.26,1.12.26,1.38.37.75-.13.37.5.25-.5.13-.37h.5l.62.25,1.63-.62h3.25l2.12.24L413,25h2.5l2.12.12,1.75-.24,1.88.37,2.87-.13,1.75-.24,3,.24,1.63,1,.75,1.63,1.25,1.75-.13,2.25-.12,2.87.25,1.5-.13,2.38v2l.38,1.88-.13,2.24-.12,1.88-.38,2.12.38,1.76-.13,3.5-.12,2.74.25,2.13L432.12,61l.25,2-.12,1.75.37,2.25-.25,2.5-.5,1.62-.12.63-.63.75.13.25.12-.13.63,1,.62,2.63Zm-1.75-4.74.25-.13-.12-.13Z"/><path d="M477.24,88.75,477.12,91l-.38,2.88L476,95.62l-1.62.5-2,.5H469l-3-.12-2,.25-2.37-.5-1.88.5-2.62-.63-3.38.26-2.37-.13-1.88.37-2.12-.12-1-1-2.5.38-2.13.62-1.62-.12-1.75-.88-.75-1.38V93l1.12.62.5.5.13.76L440,95l.13-1,.87-1-.25-.25-1.37-.87-1.63-.5-.37-1.26.37-1.5.5-.87.13-.37-.13-.26-.25-1V84.5l1-.75h.5l.75-.13.5.13-.5-.25-.62.12-.75-.74-.63-.76-.62-1.87-.38-2.13.13-1.74.37-2.26V73l.38-1.25L438,70.62l-.12-1.24-.25-2.76.12-2.62V62.5l-.5-2.38V58.38l.38-2.13L437.49,54l-.25-1.88.5-1.74-.25-1.88-.25-2.38.38-1.87-.38-2,.25-1.75.13-2-.5-2.25.5-1.87-.25-2.76.62-2.5,1.25-2,2.13-1,2-.74H445l1.88-.63,2.87.63,2.5-.26h2l3.25-.37,3.25.37,2.75.26,1.88-.26L467,25l3.88.25,1.87.25,1.63.38L475.62,27l1.25,1.5.37,2.12v2.26l.38,2.24-.13,2.13-.37,2.13-.25,1.5.12,1.24h-.12l.12.38-.25.25.25.63v.74h-.25l-.12.26-.75.37h.37l.13.5.5.5.37,1.87.25,2.63-.12,2.13-.13,1.87.13,1.87.37,1.88-.25,2.12v2.26l.13,1.62-.38,2.38.13,2.62v2.88l.12,2.5v3.74l.13,2L477.49,82l-.25,2.62-.12,2.26Zm27.88-48.87.12,2.12L505,46.75l-.62,1.75-1,1.88-.5,1.5-1.75,1.24-1.25,1.26-1.13.62-1.75.5-.37.12-1.38-.24-1.62.12h-1.25l-1.13.38-2.12.74h-3L483,55.75l-1.12-.87-.25-1.38-.5-2.25L480.87,49l-.13-2,.25-1.75.5-2-.12-2.13-.13-2.62.38-2.62.25-2.38.75-2.5L484,28.75l1.63-1.37,1.25-.88,1.62-.62,2-.76H493l1.88-.24.87.12h.38l1.25-.38,1.75-.37,2.25.63,1.5.24,1,1.26,1,1,.25,1.74.25,2-.25,1.63-.38.25.13.38.37.74v1.5l.13,2.5Z"/><path d="M550,93.75l-.62,1.13-1.88,1-2.12.74-3.13-.5-3.5-.12-4.5-1-1.75-.38-1.37-.12-1.5-.75-1.75-.37-.88-.63-1.62-.87-1.75-.63L521.87,90l-1.38-.88-.75-.87-1.5-1.37-1-.76-.87-1-1.13-1.5L513.37,82l-1.5-2.75L510.49,76l-.87-2.75-.38-3-.5-3V65.12l-.5-1.24V62l.13-1.25L508,59.12l.38-1.37.25-1.75.37-2.12.63-1.88V49.88l.87-2.5.88-1.76.87-1.37.63-1.37.5-1.26,1.37-1.24.63-1.63,1.25-2,3-2.5,1.62-1,3-2.13,2.5-1.74,1.75-.63,1.88-.75,2.5-.75,1.25-.13.75.38v-.12h1.87l2.13-.5,2-1.38,2.12-.12,2.38-.5,1.62.5,1.38.87.87,1.13.63,2.62.25,2.25.12,1.63-.12,2.37-.38,2L550,40.5l.38,2.75-.13,2.63-.37,3.5.37,3.24L550,54.38l.38,2.12-.13,2.12v2L550,62.5l.63,2.12-.5,2.26-.25,1.62.5,2.25v1.87l.25,2.13L550,76.88l.5,2v2.5L549.62,84v3.62l.62,3.38Zm20.88-65.87.12-.63.63-.87,1.25-.76,1.75-.12,1.5-.25,1.5.5.25.75.87-.25,1.88-.87,2,.12h1l1,.5,1.12-.5,2.13-.5,2-.12,2,.74,1.5,1,.37,1.38v3.25l-.12.63.5,1.5.37,2.12-.5,2.75-.12,2.37-.63,1.88.38.75.25,1.87.25,3.26-.38,2.87-.5,1.87.13,2v3.63l.25,3.63v2.87l.75,2.25-.5,2,.25,1.88.12,1.87L594,75.12l.38,2.5L594,80l.13,1.88.25,2-.13,2,.25,2L594,90l-.12,2-.75,1.5-1.25,1.25-1.63,1.37h-1.62l-2,.5L584,96.38h-2.5l-1.87.24-2,.13-1.88-.5h-5.87l-2,.37-2-.12-1.63.12-2.12-.12-2.5-.12-1.5-.13-1.75-.63L555,94.5l-.37-1.62L554,90.5l.25-3.5-.5-2.88-.12-2,.12-1.62.13-2.25.37-2.13-.5-1.62.38-2,.37-2.25L554.12,68l.25-2.25.25-.87-.75-2.5.5-1.38V59.12l-.75-2.5.37-2.87-.25-1.87.38-1.63-.5-1.63.5-2.5L554,44.5l.13-2.12-.13-2v-2l-.12-2,.37-2.13-.12-2.37V30l.62-1.88,1-1.5,1-.87,3-.25,2.75-.5,2.63.12,2.37.38,1.75.62.25,1.26.38,1,.5.12.37-.12Z"/><path d="M637.37,56.88l.12,2-.12,3.37.25,2.87.5,2.63-.25,2.37-.63,2.5.5,2.76V78L637,79.62l-.75,1.26-.62-.5.12.12-.25.38.88,1,1,.87.37,1.87v2.5l.13,2.26-.5,2.62-.5,1.62-1.63,1.5-.87.76-2.25.37-1.88.37-2.12-.37-3.63-.13-3.25.38h-1.75l-2.12-.38-1.88.13-3-.13-3,.5-2.25-.24-2.37.24L603,96l-1.62-1.12-1.5-1.26-.5-1.24L599.12,90l.25-2.5V83.38l-.75-3.13.62-2.5-.12-2V71.5l.25-2.25-.13-1.5-.37-2-.38-2.37.38-2,.25-1.88L599,57.12l.38-1.62-.75-4.12.37-2.13.13-2-.5-2.37.12-1.88.13-1.62V35.25L599,33V30.5l1-2.12.63-1.63,1.25-1,1.37-.13,1.5-.5,2-.12,3.5-.12,2.38.24h1.87l2.38.26,3.12.12,3.38-.38,2.5-.24,2,.24,2.37-.12,1.5.5,1.75.38,2.13.62L637,27l.75,1.38.13,1V31.5l-.25,2.5.12,2.12-.12,1.5.12,2.5L638,42l-.5,1.88.13,1.87v1.87l.25,2.13-.25,2.5v3Zm42.12-16.76.63,1.76-.25,1.24.25,2L680,47.75l.13,3,.12,2-.12,2.37.37,2.26-.12,2.74-.25,3.13.12,2.13L680,67.5v2l.25,2v3.75L680,77.5l.38,2-.13,1.75L680,83.62l.25,1.76.38,2.24-.25,2.26-.63,2.24v1.26l-1.25,1.37-2.12,1.13-1.63.62-1.12.38h-1.75l-2.5-.38-2.5-.12-2.5.37-2.75-.13-3.5-.37-2,.25-1.63.25-2.25-.13-1.75-.24-2.37.37-2.5-.25-1.38-.88L641.62,93V89.75l.25-2.25-.25-1.88-.5-2.24.37-2-.12-1.88.25-2,.12-2.38-.12-1.87V71.12l-.25-1.5.37-1.87-.12-2-.13-2.13.13-2.12-.13-1.88-.12-2,.5-2.24-.75-2.5.37-1.63-.12-1.63.12-2.37.75-2.13.38-1.62.37-1.25.25-1.5V39.12l.75-1.74.25-2,.88-1.88V31.62l.12-.87.13-1.25.62-1.62.88-1.26,1.12-.74,1.5-.26,2.13-.5,2.25-.12,3,.25,2.12,1,1.25.87.75.26-.12-.88.5-.5,1.37-.25,1.5.63,2.13.12h1.25l1,1,.5.38,1.37.74,1.75.38,1.63,1.12,1.37,1.26.88.62,1.12,1.75,1,1.63.88,1.74v1.63Zm41.38,55.26L719,96l-2.12.25-3.13.37-2.5-.12-3.12.12-2.25-.5-1.75.5-2-.12-1.88.12-2.75-.37h-2.12l-.63-.63.5-.5h-.37l-1,.76-1,.24-1.88.13-2,.25-2.37-.88-1.38-1-.75-1.74-.12-2.76V86.5l-.13-2.88L684.12,82V80l.12-2L684,75.5l-.12-2.12.5-1.63L684,69.5l.13-1.88V65.38L684,63.5l.25-1.88-.25-2-.12-2,.25-2.12.12-1.75v-2.5L684,49.5l-.25-2L684,45V41.25l.13-1.87-.38-1.88.5-3L684,31.25l.63-1.75.25-2,1-.62.62-.88,2.5-.38,1.88-.24L695,25h4.38l1.5.62,2.5.13,6.87.63,2.38.87,2,1.37,1.5,1,1.12,1,.5.76L719,32l.88,1.25.25,1.25.5,1.62-.5,1.13.37.75.63.75L722,40l.13,1.88.62,1.74-.37,1.5.5,4.76V52l-.25,2v2.12l.25,1.88.25,2.38-.38,2.37.25,2-.5,4,.38,1.87-.13,2.13.25,1.63-.37,2.5.25,1.87-.13,2,.38,2.25-.5,2,.12,1.75v3L722,93Z"/></g></g></svg>